<svg xmlns="http://www.w3.org/2000/svg" viewBox="0 0 32 32" fill="none">
  <rect width="32" height="32" rx="7" fill="#1e293b"/>
  <path d="M9 12a3 3 0 0 1 3-3h8a3 3 0 0 1 3 3v5a3 3 0 0 1-3 3h-8a3 3 0 0 1-3-3v-5z" stroke="#38bdf8" stroke-width="1.8"/>
  <circle cx="13.5" cy="14" r="1.5" fill="#38bdf8"/>
  <circle cx="18.5" cy="14" r="1.5" fill="#38bdf8"/>
  <path d="M13 18c0 0 1.2 1.5 3 1.5s3-1.5 3-1.5" stroke="#38bdf8" stroke-width="1.4" stroke-linecap="round"/>
  <path d="M12 9V7M20 9V7M16 9V6" stroke="#38bdf8" stroke-width="1.4" stroke-linecap="round"/>
  <path d="M10 23h12M13 25h6" stroke="#38bdf8" stroke-width="1.4" stroke-linecap="round"/>
</svg>
